<?xml version="1.0" encoding="UTF-8" standalone="no"?>
<svg
   xmlns:dc="http://purl.org/dc/elements/1.1/"
   xmlns:cc="http://creativecommons.org/ns#"
   xmlns:rdf="http://www.w3.org/1999/02/22-rdf-syntax-ns#"
   xmlns:svg="http://www.w3.org/2000/svg"
   xmlns="http://www.w3.org/2000/svg"
   xmlns:xlink="http://www.w3.org/1999/xlink"
   xmlns:sodipodi="http://sodipodi.sourceforge.net/DTD/sodipodi-0.dtd"
   xmlns:inkscape="http://www.inkscape.org/namespaces/inkscape"
   width="16"
   height="11"
   viewBox="0 0 16 11"
   version="1.1"
   id="svg2"
   inkscape:version="0.91 r13725"
   sodipodi:docname="contact.svg">
  <metadata
     id="metadata17">
    <rdf:RDF>
      <cc:Work
         rdf:about="">
        <dc:format>image/svg+xml</dc:format>
        <dc:type
           rdf:resource="http://purl.org/dc/dcmitype/StillImage" />
      </cc:Work>
    </rdf:RDF>
  </metadata>
  <sodipodi:namedview
     pagecolor="#ffffff"
     bordercolor="#666666"
     borderopacity="1"
     objecttolerance="10"
     gridtolerance="10"
     guidetolerance="10"
     inkscape:pageopacity="0"
     inkscape:pageshadow="2"
     inkscape:window-width="727"
     inkscape:window-height="480"
     id="namedview15"
     showgrid="false"
     inkscape:zoom="18.5625"
     inkscape:cx="1.5622896"
     inkscape:cy="5.5"
     inkscape:window-x="0"
     inkscape:window-y="30"
     inkscape:window-maximized="0"
     inkscape:current-layer="svg2" />
  <title
     id="title4">contact</title>
  <g
     id="Canvas"
     transform="translate(-3660 -2734)"
     style="fill:#bbbbbb;fill-opacity:1">
    <g
       id="contact"
       style="fill:#bbbbbb;fill-opacity:1">
      <g
         id="Mail"
         style="fill:#bbbbbb;fill-opacity:1">
        <g
           id="Shape"
           style="fill:#bbbbbb;fill-opacity:1">
          <use
             xlink:href="#path0_fill"
             transform="translate(3660 2734)"
             fill="#000000"
             fill-opacity="0.3"
             id="use10"
             style="fill:#bbbbbb;fill-opacity:1" />
        </g>
      </g>
    </g>
  </g>
  <defs
     id="defs12">
    <path
       id="path0_fill"
       fill-rule="evenodd"
       d="M 0.510103 1.14311C 0.943881 1.376 6.95277 4.60444 7.17677 4.72444C 7.40077 4.84444 7.69055 4.90133 7.9821 4.90133C 8.27366 4.90133 8.56344 4.84444 8.78744 4.72444C 9.01144 4.60444 15.0203 1.376 15.4541 1.14311C 15.8888 0.909333 16.2994 0 15.5021 0L 0.462992 0C -0.334342 0 0.0763251 0.909333 0.510103 1.14311ZM 15.656 3.10137C 15.1627 3.35826 9.08978 6.5227 8.78756 6.68093C 8.48533 6.83915 8.27378 6.85782 7.98222 6.85782C 7.69067 6.85782 7.47911 6.83915 7.17689 6.68093C 6.87467 6.5227 0.836445 3.35737 0.343112 3.10048C -0.00355482 2.91915 7.29214e-07 3.13159 7.29214e-07 3.29515C 7.29214e-07 3.4587 7.29214e-07 9.77781 7.29214e-07 9.77781C 7.29214e-07 10.1511 0.503112 10.6667 0.88889 10.6667L 15.1111 10.6667C 15.4969 10.6667 16 10.1511 16 9.77781C 16 9.77781 16 3.45959 16 3.29604C 16 3.13248 16.0036 2.92004 15.656 3.10137Z" />
  </defs>
</svg>
