<?xml version="1.0" encoding="UTF-8" standalone="no"?>
<svg
   xmlns:dc="http://purl.org/dc/elements/1.1/"
   xmlns:cc="http://creativecommons.org/ns#"
   xmlns:rdf="http://www.w3.org/1999/02/22-rdf-syntax-ns#"
   xmlns:svg="http://www.w3.org/2000/svg"
   xmlns="http://www.w3.org/2000/svg"
   xmlns:xlink="http://www.w3.org/1999/xlink"
   xmlns:sodipodi="http://sodipodi.sourceforge.net/DTD/sodipodi-0.dtd"
   xmlns:inkscape="http://www.inkscape.org/namespaces/inkscape"
   width="18"
   height="18"
   viewBox="0 0 18 18"
   version="1.1"
   id="svg2"
   inkscape:version="0.91 r13725"
   sodipodi:docname="facebook.svg">
  <metadata
     id="metadata15">
    <rdf:RDF>
      <cc:Work
         rdf:about="">
        <dc:format>image/svg+xml</dc:format>
        <dc:type
           rdf:resource="http://purl.org/dc/dcmitype/StillImage" />
      </cc:Work>
    </rdf:RDF>
  </metadata>
  <sodipodi:namedview
     pagecolor="#ffffff"
     bordercolor="#666666"
     borderopacity="1"
     objecttolerance="10"
     gridtolerance="10"
     guidetolerance="10"
     inkscape:pageopacity="0"
     inkscape:pageshadow="2"
     inkscape:window-width="1920"
     inkscape:window-height="1017"
     id="namedview13"
     showgrid="false"
     inkscape:zoom="37.083822"
     inkscape:cx="2.0760132"
     inkscape:cy="9.1273002"
     inkscape:window-x="0"
     inkscape:window-y="30"
     inkscape:window-maximized="1"
     inkscape:current-layer="Shape" />
  <title
     id="title4">facebook-logo</title>
  <g
     id="Shape"
     transform="translate(-3325,-2586)">
    <rect
       style="opacity:1;fill:none;fill-opacity:1;stroke:none;stroke-width:1;stroke-miterlimit:4;stroke-dasharray:none"
       id="rect4160"
       width="18"
       height="18"
       x="3325"
       y="2586"
       ry="2.0223505"
       rx="2.0223505" />
    <use
       height="100%"
       width="100%"
       y="0"
       x="0"
       style="fill:#bbbbbb"
       id="use8"
       transform="translate(3325,2586)"
       xlink:href="#path0_fill" />
  </g>
  <defs
     id="defs10">
    <path
       id="path0_fill"
       fill-rule="evenodd"
       d="M 16 0L 2 0C 0.9 0 0 0.9 0 2L 0 16C 0 17.101 0.9 18 2 18L 9 18L 9 11L 7 11L 7 8.525L 9 8.525L 9 6.475C 9 4.311 10.212 2.791 12.766 2.791L 14.569 2.793L 14.569 5.398L 13.372 5.398C 12.378 5.398 12 6.144 12 6.836L 12 8.526L 14.568 8.526L 14 11L 12 11L 12 18L 16 18C 17.1 18 18 17.101 18 16L 18 2C 18 0.9 17.1 0 16 0Z" />
  </defs>
</svg>
